<?xml version="1.0" standalone="no"?>
<!DOCTYPE svg PUBLIC "-//W3C//DTD SVG 20010904//EN"
 "http://www.w3.org/TR/2001/REC-SVG-20010904/DTD/svg10.dtd">
<svg version="1.0" xmlns="http://www.w3.org/2000/svg"
 width="680.000000pt" height="680.000000pt" viewBox="0 0 680.000000 680.000000"
 preserveAspectRatio="xMidYMid meet">
<metadata>
Created by potrace 1.11, written by Peter Selinger 2001-2013
</metadata>
<g transform="translate(0.000000,680.000000) scale(0.100000,-0.100000)"
fill="#000000" stroke="none">
<path d="M434 4835 c24 -193 36 -681 23 -945 l-2 -45 55 0 55 0 13 100 c18
144 49 307 77 403 69 237 182 344 425 402 78 18 134 23 311 28 119 2 229 2
243 -2 l26 -7 -3 -1327 c-3 -1425 -1 -1359 -55 -1472 -37 -75 -85 -103 -222
-129 -58 -11 -136 -24 -175 -28 l-70 -8 -3 -45 -3 -45 776 0 776 0 -3 45 -3
45 -70 8 c-116 13 -276 47 -316 68 -66 33 -97 89 -124 221 -13 67 -15 246 -15
1372 0 1172 1 1294 16 1300 9 3 115 6 237 6 254 -1 358 -17 485 -75 92 -43
176 -125 220 -215 42 -85 97 -319 118 -497 l17 -143 59 0 59 0 -8 73 c-4 39
-7 189 -6 332 1 232 7 343 29 565 l6 65 -1477 0 -1477 0 6 -50z"/>
<path d="M3812 4840 l3 -45 55 -7 c217 -30 279 -56 319 -137 45 -91 46 -118
46 -1351 0 -1233 -1 -1260 -46 -1351 -41 -82 -77 -97 -324 -136 l-50 -8 -3
-45 -3 -45 1312 0 1311 0 -6 50 c-27 218 -40 730 -23 903 l8 82 -59 0 -60 0
-7 -42 c-40 -266 -66 -361 -132 -498 -38 -79 -58 -108 -122 -170 -93 -90 -177
-141 -291 -178 l-85 -27 -325 0 c-407 0 -468 10 -538 89 -34 39 -48 92 -62
236 -13 134 -13 2175 0 2298 23 210 58 264 195 299 44 12 112 25 150 29 l70 9
3 45 3 45 -671 0 -671 0 3 -45z"/>
</g>
</svg>
